<mxfile host="65bd71144e">
    <diagram id="JySzIcuSiKDstbetwOWa" name="Page-1">
        <mxGraphModel dx="419" dy="364" grid="1" gridSize="10" guides="1" tooltips="1" connect="1" arrows="1" fold="1" page="1" pageScale="1" pageWidth="850" pageHeight="1100" math="0" shadow="0">
            <root>
                <mxCell id="0"/>
                <mxCell id="1" parent="0"/>
                <mxCell id="10" value="" style="edgeStyle=none;html=1;" edge="1" parent="1" source="2" target="3">
                    <mxGeometry relative="1" as="geometry"/>
                </mxCell>
                <mxCell id="2" value="START" style="ellipse;whiteSpace=wrap;html=1;aspect=fixed;" vertex="1" parent="1">
                    <mxGeometry x="240" y="40" width="80" height="80" as="geometry"/>
                </mxCell>
                <mxCell id="11" value="" style="edgeStyle=none;html=1;" edge="1" parent="1" source="3" target="4">
                    <mxGeometry relative="1" as="geometry"/>
                </mxCell>
                <mxCell id="3" value="Initialize numbers list&amp;nbsp;&lt;br&gt;numbers = [ ]" style="rounded=0;whiteSpace=wrap;html=1;" vertex="1" parent="1">
                    <mxGeometry x="215" y="160" width="130" height="60" as="geometry"/>
                </mxCell>
                <mxCell id="12" value="" style="edgeStyle=none;html=1;" edge="1" parent="1" source="4" target="6">
                    <mxGeometry relative="1" as="geometry"/>
                </mxCell>
                <mxCell id="4" value="&lt;div&gt;Input Loop (5 times)&lt;/div&gt;&lt;div&gt;&amp;nbsp;- Prompt for number&lt;/div&gt;&lt;div&gt;&amp;nbsp;- Convert to float&lt;/div&gt;&lt;div&gt;&amp;nbsp;- Append to list&amp;nbsp;&lt;/div&gt;" style="rounded=0;whiteSpace=wrap;html=1;" vertex="1" parent="1">
                    <mxGeometry x="202.5" y="260" width="155" height="90" as="geometry"/>
                </mxCell>
                <mxCell id="13" value="" style="edgeStyle=none;html=1;" edge="1" parent="1" source="6" target="7">
                    <mxGeometry relative="1" as="geometry"/>
                </mxCell>
                <mxCell id="6" value="&amp;nbsp;Initialize minval &amp;amp; maxval&amp;nbsp;" style="rounded=0;whiteSpace=wrap;html=1;" vertex="1" parent="1">
                    <mxGeometry x="200" y="390" width="160" height="60" as="geometry"/>
                </mxCell>
                <mxCell id="14" value="" style="edgeStyle=none;html=1;" edge="1" parent="1" source="7" target="8">
                    <mxGeometry relative="1" as="geometry"/>
                </mxCell>
                <mxCell id="7" value="&lt;div&gt;Find Min and Max Loop&lt;/div&gt;&lt;div&gt;For each number in list:&lt;/div&gt;&lt;div&gt;- If number &amp;lt; minval&lt;/div&gt;&lt;div&gt;update minval&lt;/div&gt;&lt;div&gt;- If number &amp;gt; maxval&lt;/div&gt;&lt;div&gt;update maxval&amp;nbsp; &amp;nbsp;&lt;/div&gt;" style="rounded=0;whiteSpace=wrap;html=1;" vertex="1" parent="1">
                    <mxGeometry x="200" y="490" width="160" height="120" as="geometry"/>
                </mxCell>
                <mxCell id="15" value="" style="edgeStyle=none;html=1;" edge="1" parent="1" source="8" target="9">
                    <mxGeometry relative="1" as="geometry"/>
                </mxCell>
                <mxCell id="8" value="print result" style="rounded=0;whiteSpace=wrap;html=1;" vertex="1" parent="1">
                    <mxGeometry x="220" y="660" width="120" height="60" as="geometry"/>
                </mxCell>
                <mxCell id="9" value="END" style="ellipse;whiteSpace=wrap;html=1;aspect=fixed;" vertex="1" parent="1">
                    <mxGeometry x="240" y="760" width="80" height="80" as="geometry"/>
                </mxCell>
            </root>
        </mxGraphModel>
    </diagram>
</mxfile>